<svg width="216" height="64" viewBox="0 0 216 64" fill="none" xmlns="http://www.w3.org/2000/svg">
<path d="M0 14C0 6.268 6.268 0 14 0H202C209.732 0 216 6.268 216 14V50C216 57.732 209.732 64 202 64H14C6.268 64 0 57.732 0 50V14Z" fill="white"/>
<path d="M51.3809 30.901C51.3359 25.987 55.4039 23.597 55.5899 23.486C53.2859 20.127 49.7159 19.668 48.4609 19.632C45.4629 19.316 42.5539 21.426 41.0259 21.426C39.4679 21.426 37.1159 19.662 34.5809 19.714C31.3179 19.764 28.2659 21.653 26.5919 24.586C23.1379 30.567 25.7139 39.356 29.0239 44.19C30.6799 46.557 32.6139 49.201 35.1459 49.108C37.6239 49.006 38.5489 47.528 41.5389 47.528C44.5009 47.528 45.3699 49.108 47.9519 49.048C50.6109 49.006 52.2849 46.67 53.8819 44.281C55.7959 41.568 56.5639 38.895 56.5939 38.758C56.5319 38.737 51.4309 36.79 51.3809 30.901Z" fill="black"/>
<path d="M46.502 16.452C47.835 14.785 48.746 12.518 48.493 10.218C46.565 10.3034 44.153 11.5519 42.764 13.182C41.535 14.618 40.438 16.972 40.721 19.185C42.888 19.347 45.112 18.092 46.502 16.452Z" fill="black"/>
<path d="M87.232 48.768H83.77L81.873 42.808H75.281L73.475 48.768H70.104L76.635 28.48H80.669L87.232 48.768ZM81.301 40.308L79.586 35.011C79.405 34.469 79.065 33.195 78.563 31.189H78.502C78.303 32.052 77.981 33.326 77.539 35.011L75.854 40.308H81.301Z" fill="black"/>
<path d="M104.027 41.273C104.027 43.761 103.354 45.728 102.01 47.171C100.805 48.457 99.31 49.098 97.525 49.098C95.598 49.098 94.213 48.406 93.37 47.022H93.309V54.728H90.059V38.954C90.059 37.39 90.018 35.785 89.939 34.139H92.797L92.979 36.457H93.04C94.123 34.71 95.768 33.838 97.976 33.838C99.702 33.838 101.142 34.52 102.295 35.884C103.45 37.25 104.027 39.046 104.027 41.273ZM100.715 41.392C100.715 39.968 100.395 38.794 99.752 37.871C99.049 36.907 98.105 36.425 96.922 36.425C96.121 36.425 95.392 36.694 94.741 37.223C94.088 37.756 93.662 38.453 93.462 39.316C93.361 39.718 93.311 40.048 93.311 40.307V42.746C93.311 43.81 93.637 44.708 94.29 45.441C94.942 46.174 95.79 46.54 96.832 46.54C98.057 46.54 99.009 46.068 99.691 45.126C100.374 44.182 100.715 42.938 100.715 41.392Z" fill="black"/>
<path d="M120.853 41.273C120.853 43.761 120.18 45.728 118.834 47.171C117.631 48.457 116.136 49.098 114.351 49.098C112.424 49.098 111.04 48.406 110.198 47.022H110.137V54.728H106.887V38.954C106.887 37.39 106.846 35.785 106.766 34.139H109.625L109.806 36.457H109.867C110.95 34.71 112.594 33.838 114.803 33.838C116.528 33.838 117.968 34.52 119.124 35.884C120.275 37.25 120.853 39.046 120.853 41.273ZM117.541 41.392C117.541 39.968 117.22 38.794 116.576 37.871C115.874 36.907 114.933 36.425 113.749 36.425C112.945 36.425 112.218 36.694 111.565 37.223C110.913 37.756 110.488 38.453 110.288 39.316C110.189 39.718 110.137 40.048 110.137 40.307V42.746C110.137 43.81 110.463 44.708 111.113 45.441C111.765 46.173 112.613 46.54 113.659 46.54C114.883 46.54 115.836 46.068 116.517 45.126C117.2 44.182 117.541 42.938 117.541 41.392Z" fill="black"/>
<path d="M139.665 43.078C139.665 44.804 139.066 46.208 137.863 47.292C136.541 48.477 134.701 49.068 132.337 49.068C130.154 49.068 128.404 48.647 127.079 47.804L127.832 45.095C129.259 45.958 130.825 46.391 132.53 46.391C133.755 46.391 134.707 46.114 135.392 45.562C136.073 45.01 136.413 44.269 136.413 43.345C136.413 42.522 136.133 41.828 135.57 41.266C135.011 40.703 134.076 40.18 132.771 39.697C129.219 38.372 127.445 36.432 127.445 33.88C127.445 32.212 128.067 30.844 129.312 29.78C130.553 28.715 132.209 28.182 134.279 28.182C136.125 28.182 137.659 28.504 138.883 29.146L138.07 31.796C136.927 31.174 135.634 30.863 134.188 30.863C133.044 30.863 132.151 31.145 131.511 31.706C130.969 32.207 130.698 32.818 130.698 33.543C130.698 34.344 131.007 35.008 131.629 35.529C132.171 36.011 133.154 36.532 134.581 37.095C136.326 37.797 137.609 38.619 138.433 39.561C139.255 40.5 139.665 41.676 139.665 43.078Z" fill="black"/>
<path d="M150.411 36.578H146.829V43.68C146.829 45.487 147.46 46.389 148.725 46.389C149.306 46.389 149.788 46.339 150.169 46.239L150.259 48.707C149.618 48.946 148.775 49.066 147.731 49.066C146.447 49.066 145.444 48.675 144.72 47.893C143.999 47.109 143.636 45.795 143.636 43.949V36.575H141.502V34.136H143.636V31.457L146.829 30.494V34.136H150.411V36.578Z" fill="black"/>
<path d="M166.575 41.333C166.575 43.581 165.932 45.428 164.648 46.871C163.302 48.358 161.515 49.099 159.288 49.099C157.142 49.099 155.433 48.387 154.158 46.963C152.884 45.539 152.247 43.742 152.247 41.575C152.247 39.308 152.902 37.451 154.218 36.008C155.53 34.563 157.302 33.84 159.529 33.84C161.676 33.84 163.403 34.552 164.706 35.977C165.953 37.36 166.575 39.145 166.575 41.333ZM163.203 41.438C163.203 40.089 162.915 38.932 162.331 37.967C161.65 36.799 160.675 36.217 159.413 36.217C158.107 36.217 157.114 36.801 156.433 37.967C155.849 38.933 155.561 40.109 155.561 41.499C155.561 42.848 155.849 44.005 156.433 44.969C157.136 46.137 158.117 46.719 159.384 46.719C160.625 46.719 161.599 46.124 162.302 44.938C162.901 43.955 163.203 42.786 163.203 41.438Z" fill="black"/>
<path d="M177.14 36.997C176.818 36.938 176.475 36.907 176.115 36.907C174.972 36.907 174.088 37.338 173.466 38.203C172.925 38.965 172.653 39.929 172.653 41.092V48.768H169.404L169.435 38.746C169.435 37.06 169.394 35.524 169.313 34.14H172.144L172.263 36.939H172.353C172.696 35.977 173.237 35.203 173.978 34.622C174.702 34.099 175.484 33.838 176.327 33.838C176.627 33.838 176.899 33.86 177.14 33.898V36.997Z" fill="black"/>
<path d="M191.676 40.761C191.676 41.343 191.638 41.834 191.557 42.235H181.806C181.844 43.68 182.315 44.786 183.221 45.548C184.043 46.229 185.105 46.571 186.41 46.571C187.854 46.571 189.171 46.341 190.355 45.879L190.865 48.135C189.48 48.739 187.846 49.039 185.96 49.039C183.692 49.039 181.911 48.371 180.615 47.037C179.323 45.703 178.675 43.912 178.675 41.665C178.675 39.459 179.277 37.622 180.483 36.157C181.745 34.593 183.451 33.811 185.598 33.811C187.706 33.811 189.302 34.593 190.386 36.157C191.244 37.4 191.676 38.936 191.676 40.761ZM188.576 39.918C188.598 38.955 188.386 38.122 187.945 37.419C187.383 36.515 186.518 36.064 185.355 36.064C184.293 36.064 183.428 36.505 182.768 37.389C182.227 38.092 181.905 38.935 181.806 39.916H188.576V39.918Z" fill="black"/>
<path d="M80.2269 15.999C80.2269 17.793 79.689 19.144 78.614 20.051C77.619 20.888 76.2039 21.307 74.3709 21.307C73.4629 21.307 72.6849 21.268 72.0339 21.188V11.3843C72.8839 11.2471 73.7979 11.1769 74.7859 11.1769C76.5319 11.1769 77.8469 11.5565 78.7349 12.316C79.7289 13.174 80.2269 14.401 80.2269 15.999ZM78.5419 16.043C78.5419 14.88 78.2349 13.988 77.6189 13.366C77.0029 12.746 76.1029 12.435 74.9189 12.435C74.4159 12.435 73.9869 12.468 73.6319 12.538V19.992C73.8289 20.022 74.1889 20.036 74.7109 20.036C75.9339 20.036 76.8779 19.696 77.5419 19.016C78.2069 18.336 78.5419 17.345 78.5419 16.043Z" fill="black"/>
<path d="M89.1591 17.566C89.1591 18.671 88.8441 19.577 88.2121 20.287C87.5511 21.017 86.6741 21.382 85.5801 21.382C84.5251 21.382 83.6851 21.033 83.0581 20.331C82.4331 19.632 82.1211 18.749 82.1211 17.685C82.1211 16.572 82.4421 15.659 83.0891 14.95C83.7351 14.241 84.6041 13.886 85.6991 13.886C86.7541 13.886 87.6011 14.235 88.2431 14.935C88.8531 15.615 89.1591 16.493 89.1591 17.566ZM87.5021 17.618C87.5021 16.955 87.3591 16.386 87.0741 15.912C86.7381 15.339 86.2611 15.052 85.6411 15.052C84.9991 15.052 84.5111 15.339 84.1761 15.912C83.8891 16.386 83.7471 16.964 83.7471 17.647C83.7471 18.31 83.8911 18.879 84.1761 19.353C84.5221 19.926 85.0031 20.213 85.6251 20.213C86.2351 20.213 86.7141 19.921 87.0581 19.338C87.3541 18.854 87.5021 18.281 87.5021 17.618Z" fill="black"/>
<path d="M101.136 14.032L98.8869 21.219H97.4239L96.4919 18.098C96.2559 17.319 96.0639 16.545 95.9139 15.776H95.8849C95.7469 16.566 95.5539 17.339 95.3079 18.098L94.3179 21.219H92.8379L90.7229 14.032H92.3649L93.1779 17.449C93.3739 18.257 93.5359 19.026 93.6659 19.755H93.6949C93.8139 19.155 94.0099 18.389 94.2879 17.464L95.3079 14.034H96.6089L97.5869 17.391C97.8229 18.209 98.0149 18.997 98.1629 19.757H98.2069C98.3149 19.017 98.4779 18.229 98.6949 17.391L99.5669 14.034H101.136V14.032Z" fill="black"/>
<path d="M109.418 21.219H107.82V17.103C107.82 15.834 107.339 15.2 106.372 15.2C105.898 15.2 105.515 15.374 105.218 15.723C104.924 16.072 104.774 16.484 104.774 16.955V21.217H103.177V16.086C103.177 15.455 103.157 14.77 103.119 14.029H104.523L104.598 15.153H104.642C104.828 14.804 105.105 14.515 105.47 14.285C105.903 14.017 106.387 13.881 106.918 13.881C107.589 13.881 108.147 14.098 108.59 14.532C109.142 15.064 109.418 15.859 109.418 16.913V21.219Z" fill="black"/>
<path d="M113.824 21.219H112.228V10.7348H113.824V21.219Z" fill="black"/>
<path d="M123.23 17.566C123.23 18.671 122.914 19.577 122.283 20.287C121.622 21.017 120.744 21.382 119.65 21.382C118.594 21.382 117.754 21.033 117.129 20.331C116.504 19.632 116.191 18.749 116.191 17.685C116.191 16.572 116.513 15.659 117.159 14.95C117.806 14.241 118.675 13.886 119.768 13.886C120.824 13.886 121.67 14.235 122.314 14.935C122.924 15.615 123.23 16.493 123.23 17.566ZM121.571 17.618C121.571 16.955 121.428 16.386 121.143 15.912C120.809 15.339 120.33 15.052 119.711 15.052C119.068 15.052 118.58 15.339 118.246 15.912C117.96 16.386 117.818 16.964 117.818 17.647C117.818 18.31 117.961 18.879 118.246 19.353C118.592 19.926 119.074 20.213 119.696 20.213C120.306 20.213 120.783 19.921 121.128 19.338C121.425 18.854 121.571 18.281 121.571 17.618Z" fill="black"/>
<path d="M130.962 21.219H129.527L129.409 20.391H129.364C128.873 21.051 128.174 21.382 127.265 21.382C126.587 21.382 126.038 21.164 125.625 20.731C125.25 20.338 125.062 19.848 125.062 19.267C125.062 18.389 125.428 17.72 126.164 17.257C126.899 16.793 127.933 16.566 129.264 16.577V16.442C129.264 15.496 128.767 15.023 127.771 15.023C127.062 15.023 126.437 15.202 125.898 15.555L125.573 14.506C126.241 14.093 127.065 13.886 128.038 13.886C129.916 13.886 130.858 14.877 130.858 16.859V19.505C130.858 20.223 130.893 20.795 130.962 21.219ZM129.303 18.749V17.641C127.541 17.61 126.66 18.094 126.66 19.089C126.66 19.464 126.761 19.745 126.966 19.932C127.172 20.12 127.434 20.213 127.747 20.213C128.098 20.213 128.425 20.101 128.724 19.88C129.024 19.658 129.209 19.376 129.277 19.03C129.294 18.952 129.303 18.857 129.303 18.749Z" fill="black"/>
<path d="M140.04 21.219H138.622L138.548 20.065H138.503C138.051 20.943 137.279 21.382 136.195 21.382C135.329 21.382 134.608 21.042 134.037 20.362C133.465 19.682 133.18 18.799 133.18 17.715C133.18 16.552 133.489 15.61 134.111 14.891C134.714 14.22 135.451 13.884 136.33 13.884C137.295 13.884 137.97 14.209 138.354 14.86H138.385V10.7348H139.984V19.283C139.984 19.982 140.002 20.627 140.04 21.219ZM138.385 18.188V16.99C138.385 16.782 138.369 16.615 138.34 16.487C138.25 16.103 138.057 15.779 137.763 15.519C137.465 15.258 137.107 15.127 136.694 15.127C136.098 15.127 135.631 15.363 135.288 15.837C134.948 16.311 134.776 16.917 134.776 17.656C134.776 18.366 134.939 18.943 135.267 19.386C135.613 19.859 136.08 20.095 136.663 20.095C137.188 20.095 137.607 19.899 137.926 19.504C138.234 19.139 138.385 18.7 138.385 18.188Z" fill="black"/>
<path d="M153.705 17.566C153.705 18.671 153.389 19.577 152.758 20.287C152.096 21.017 151.221 21.382 150.125 21.382C149.072 21.382 148.232 21.033 147.604 20.331C146.979 19.632 146.666 18.749 146.666 17.685C146.666 16.572 146.988 15.659 147.634 14.95C148.28 14.241 149.149 13.886 150.246 13.886C151.299 13.886 152.148 14.235 152.788 14.935C153.398 15.615 153.705 16.493 153.705 17.566ZM152.049 17.618C152.049 16.955 151.906 16.386 151.621 15.912C151.284 15.339 150.808 15.052 150.186 15.052C149.546 15.052 149.058 15.339 148.721 15.912C148.434 16.386 148.293 16.964 148.293 17.647C148.293 18.31 148.436 18.879 148.721 19.353C149.067 19.926 149.549 20.213 150.171 20.213C150.781 20.213 151.261 19.921 151.605 19.338C151.9 18.854 152.049 18.281 152.049 17.618Z" fill="black"/>
<path d="M162.295 21.219H160.699V17.103C160.699 15.834 160.217 15.2 159.249 15.2C158.775 15.2 158.392 15.374 158.096 15.723C157.801 16.072 157.653 16.484 157.653 16.955V21.217H156.053V16.086C156.053 15.455 156.035 14.77 155.997 14.029H157.4L157.474 15.153H157.519C157.706 14.804 157.983 14.515 158.346 14.285C158.781 14.017 159.264 13.881 159.796 13.881C160.465 13.881 161.023 14.098 161.467 14.532C162.02 15.064 162.295 15.859 162.295 16.913V21.219Z" fill="black"/>
<path d="M173.047 15.229H171.287V18.72C171.287 19.607 171.6 20.051 172.219 20.051C172.506 20.051 172.743 20.027 172.931 19.976L172.972 21.188C172.656 21.307 172.242 21.367 171.731 21.367C171.1 21.367 170.609 21.174 170.254 20.79C169.897 20.406 169.72 19.76 169.72 18.853V15.229H168.67V14.032H169.72V12.715L171.286 12.242V14.031H173.045V15.229H173.047Z" fill="black"/>
<path d="M181.505 21.219H179.906V17.133C179.906 15.845 179.424 15.2 178.459 15.2C177.718 15.2 177.212 15.574 176.935 16.321C176.887 16.478 176.86 16.67 176.86 16.895V21.217H175.264V10.7348H176.86V15.066H176.891C177.394 14.278 178.115 13.884 179.049 13.884C179.711 13.884 180.258 14.101 180.693 14.535C181.234 15.077 181.505 15.881 181.505 16.946V21.219Z" fill="black"/>
<path d="M190.23 17.286C190.23 17.572 190.209 17.813 190.171 18.01H185.379C185.4 18.72 185.629 19.261 186.073 19.636C186.478 19.972 187.001 20.139 187.641 20.139C188.35 20.139 188.997 20.027 189.579 19.799L189.829 20.909C189.148 21.205 188.346 21.353 187.417 21.353C186.304 21.353 185.428 21.025 184.794 20.37C184.156 19.714 183.841 18.834 183.841 17.731C183.841 16.647 184.135 15.744 184.728 15.025C185.347 14.256 186.184 13.872 187.24 13.872C188.274 13.872 189.059 14.256 189.59 15.025C190.018 15.635 190.23 16.389 190.23 17.286ZM188.705 16.872C188.718 16.398 188.612 15.99 188.396 15.645C188.119 15.202 187.696 14.979 187.125 14.979C186.603 14.979 186.178 15.195 185.853 15.63C185.588 15.976 185.431 16.389 185.379 16.872H188.705Z" fill="black"/>
</svg>
