<svg width="800" height="410" viewBox="0 0 800 410" fill="none" xmlns="http://www.w3.org/2000/svg">
<path class="afkhaz" d="M258.88 59.8L257.2 63.64L255.84 67.88L256.32 72.52L256.4 77.08L254.72 81.72L252.32 85.64L249.6 88.76L247.28 92.52L241.12 95.16L229.52 97.32L226.72 101L228.88 103.72L229.84 107.16L230.48 110.92L231.68 114.44L232.24 117.96L230.4 120.44L228.96 121.4L227.68 122.76L227.6 124.52L228.48 126.04L229.68 133.48L229.52 137.72L230 141.64L233.36 147.4L234.16 154.44L233.12 157.32L231.04 158.68L228.56 160.68L226.48 163.64L217.12 172.76L206.48 179L200.64 181L196.32 186.36L191.84 189.16L187.04 191.48L181.04 153.64L178.96 147.24L175.92 141.8L172 137.56L167.12 134.76L158.08 133.08L156.08 131.96L154.16 130.2L151.28 128.6L148.32 127.4L145.92 127.08L144.56 127.48L142.16 129L140.64 129.24L139.36 128.52L133.92 120.2L131.2 110.2L126.24 101.56L124.24 96.92L121.28 97L116.56 99.08L113.6 98.04L110.08 92.6L108 91.32L107.92 90.52L105.12 85.64L104.32 85L95.68 81.56L83.76 79.88L78.16 80.2L74.3201 81.16L72.8801 81.32L71.5201 80.76L69.2001 78.44L67.4401 77.48L65.4401 75.32L63.2001 74.04L59.4401 73.4L49.84 68.76L45.44 68.28L42.32 72.28L41.1201 71L39.3601 66.6L38.32 64.44L35.6 61.72L34.4001 59.96L34.96 54.76L33.0401 49.96L30.48 45.56L28.56 43.16L24.88 41.4L18.32 39.48L14.5601 35.56L12.8 34.76L7.36005 33.88L3.60005 32.28L0.800049 31.72L1.44005 28.84L9.52005 7.72L11.12 5.08L14 3.16L22 1H30.24L59.6 12.04L64.32 12.6L68.0001 11.64L75.76 7.56L80.08 7.08L83.5201 8.84L90.5601 14.28L102.72 18.52L106.56 20.76L122.88 33.88L126.56 34.84L138.96 33.16L142.96 34.04L146.8 35.96L150.48 39L154.64 40.84L163.2 39.16L166.8 40.6L167.84 42.2L169.52 46.04L170.64 47.72L172.4 49L178.56 51L181.68 52.84L186.96 58.36L190.24 60.12L194.56 60.52L203.28 59.32L207.6 59.8L215.36 62.04L219.12 62.44L227.36 61.48L230.88 61.64L234.32 62.6L238.08 64.44L241.84 65.56L245.68 65.8L249.44 65L258.88 59.8Z" fill="#E2EEFA" stroke="#83ADFF" stroke-width="0.5" stroke-linecap="round" stroke-linejoin="round"/>
<path d="M297.84 289.08L299.52 294.04L299.36 299.56L298 301.72L297.76 304.68L298.56 307L299.68 309L302.8 311.88L305.6 315.16L309.12 320.76L310.32 324.12L307.76 326.04L306.56 328.68L305.44 335.16L304.24 337.8L301.6 340.52L298.08 345.96L295.6 347.56L292.56 347.72L271.68 339.56L265.84 339.88L263.04 339.64L261.04 337.8L259.36 336.76L257.52 336.68L253.76 337.8L252.08 337L250.4 336.68L248.72 336.92L247.04 337.8L242.8 339.08L234.32 335.8L229.52 337.8L227.84 339L224.16 344.36L219.36 348.52L218.24 349.16L216.8 348.52L212.08 344.12L210.48 343.56L206.96 343.16L205.6 342.6L205.12 341.56L205.28 339.08L204.16 338.44L201.2 339.8L197.6 340.12L196.16 339.8L183.44 334.44L191.28 320.36L194.72 315.64L201.92 310.92L203.92 306.12L209.52 296.92L210 292.28L210.72 290.92L212.64 288.2L213.6 285.4V272.44L229.12 273.24L234.08 276.2L234.72 279.56L240.56 282.04L244.32 284.2L248 287.08L249.52 286.84L252.64 285.64L258.4 284.92L264.32 288.2L267.84 289.08L276.48 287.72L282.8 283.72L286.08 282.68L288.72 283.32L293.28 288.04L294.8 288.84L297.84 289.08Z" fill="#E2EEFA" stroke="#83ADFF" stroke-width="0.5" stroke-linecap="round" stroke-linejoin="round"/>
<path d="M267.76 241.24L265.04 245.48L267.92 249.72L273.76 250.76L276 251.4L277.92 250.76L281.6 248.44L285.84 249.48L288.16 253.24L289.68 257.96L293.12 260.04L297.36 261.32L300.4 263.56L303.68 265.24L306 266.6L308.32 267.8L312.16 267.48L315.76 268.52L317.52 275.48L317.76 283.56L314.72 283.64L312.08 285.4L311.04 288.28L309.04 289.88L306.32 289.4L303.68 288.44L297.84 289.08L294.8 288.84L293.28 288.04L288.72 283.32L286.08 282.68L282.8 283.72L276.48 287.72L267.84 289.08L264.32 288.2L258.4 284.92L252.64 285.64L249.52 286.84L248 287.08L244.32 284.2L240.56 282.04L234.72 279.56L234.08 276.2L229.12 273.24L213.6 272.44V271.8L212.16 261.72L211.92 258.04L211.44 255.88L206.56 247.32L209.2 243.16L209.68 240.04L211.36 235.56L218.8 234.2L226.48 233.88L241.2 231.4L247.84 233.08L253.84 237.08L261.44 238.12L267.76 241.24Z" fill="#E2EEFA" stroke="#83ADFF" stroke-width="0.5" stroke-linecap="round" stroke-linejoin="round"/>
<path d="M380.32 105.96L376.48 107.48L372.4 113.24L369.76 115.72L369.44 120.84L367.28 124.2L364 123.64L356.56 120.76L347.92 121.88L335.04 116.04L333.44 116.84L332 118.04L328.8 119.48L321.84 119.24L304.96 115.08L302 113.72L299.04 113.64L297.52 116.36L296.32 119.32L295.04 120.36L293.6 120.68L289.12 121L285.36 123.16L282.48 128.76L288.96 134.44L302.32 142.04L307.68 147.64L304.56 154.36L313.6 172.52L311.28 172.6L309.12 173.24L303.2 173.64L299.52 177.32L297.76 182.92L295.92 184.52L294.72 187L294.64 191.72L293.04 195.56L284.72 205.24L279.52 213.8L278.16 217.96L275.92 220.6L274.72 227.32L274.88 235.72L272.48 240.76L267.76 241.24L261.44 238.12L253.84 237.08L247.84 233.08L241.2 231.4L226.48 233.88L218.8 234.2L211.36 235.56L209.68 240.04L209.2 243.16L206.56 247.32L202.96 241L200.48 238.6L199.92 235.56L199.68 230.04L198.72 222.76L192.4 200.68L191.12 198.52L187.92 195.32L187.04 191.48L191.84 189.16L196.32 186.36L200.64 181L206.48 179L217.12 172.76L226.48 163.64L228.56 160.68L231.04 158.68L233.12 157.32L234.16 154.44L233.36 147.4L230 141.64L229.52 137.72L229.68 133.48L228.48 126.04L227.6 124.52L227.68 122.76L228.96 121.4L230.4 120.44L232.24 117.96L231.68 114.44L230.48 110.92L229.84 107.16L228.88 103.72L226.72 101L229.52 97.32L241.12 95.16L247.28 92.52L249.6 88.76L252.32 85.64L254.72 81.72L256.4 77.08L256.32 72.52L255.84 67.88L257.2 63.64L258.88 59.8L262.56 58.44L282.64 56.76L290.8 57.88L297.6 62.44L300.72 65.64L304.16 68.36L311.36 72.44L313.68 72.92L315.36 72.2L318.56 69.16L320.64 68.2L324.4 68.12L329.92 66.36L334.64 66.52L339.2 67.72L342.56 69.88L345.92 73.08L349.36 75.4L359.52 79.16V81.32L358.64 84.04L358.24 86.68L359.36 88.36L365.2 92.52L378 104.68L380.32 105.96Z" fill="#E2EEFA" stroke="#83ADFF" stroke-width="0.5" stroke-linecap="round" stroke-linejoin="round"/>
<path d="M429.44 193.4L433.6 195.96L438.24 196.68L441.68 195.88L444.96 194.04L448.8 193.48L451.44 196.76L450.08 201.96L449.92 207.24L440.8 209.72L432.8 215.48L431.84 220.2L432.56 225.32L431.84 229.56L428.64 232.6L427.04 237.24L424.8 241.4L420.96 244.36L417.68 247.64L417.2 254.44L415.36 260.2L411.04 264.04L410.24 270.2L374.64 284.84L372.64 284.52L370.64 283.8L358.4 284.84L353.28 287L347.92 286.92L337.68 284.76L325.12 287.96L317.76 283.56L317.52 275.48L315.76 268.52L312.16 267.48L308.32 267.8L306 266.6L303.68 265.24L300.4 263.56L297.36 261.32L293.12 260.04L289.68 257.96L288.16 253.24L285.84 249.48L281.6 248.44L277.92 250.76L276 251.4L273.76 250.76L267.92 249.72L265.04 245.48L267.76 241.24L272.48 240.76L274.88 235.72L274.72 227.32L275.92 220.6L278.16 217.96L279.52 213.8L284.72 205.24L293.04 195.56L294.64 191.72L294.72 187L295.92 184.52L297.76 182.92L299.52 177.32L303.2 173.64L309.12 173.24L311.28 172.6L313.6 172.52L314.64 176.2V180.28L315.6 183.4L315.68 186.84L328.4 182.52L331.44 183.8L334.56 184.04L337.2 181.4L340.16 181.24L346.72 185.48L352.72 191.16L354.24 196.2L357.2 198.6L359.76 199.08L365.44 202.28L374 201.48L378.96 199.4L383.2 195.16L394.48 189.24L407.12 190.6L419.2 189.64L429.44 193.4Z" fill="#E2EEFA" stroke="#83ADFF" stroke-width="0.5" stroke-linecap="round" stroke-linejoin="round"/>
<path d="M637.12 345.56L636.8 342.84L635.04 338.92L634.16 334.92L632 331.72L628.24 330.68L624.4 330.44L622.32 329L621.44 325.88L620.8 321.56L624.88 312.12L622.56 303.56L621.68 298.44L619.6 294.2L615.04 293.64L611.12 290.76L608.48 286.44L605.36 282.92L603.76 278.2L600.08 275.96L603.2 272.44L606.8 270.28L613.28 274.52L622.88 273.16L618.56 267.96L612.72 266.44L609.92 266.2L607.2 265.24L606.08 260.28L607.92 255.88L605.84 250.84L605.44 246.28L604.08 240.12L605.68 236.36L607.52 227.16L609.76 223.56L612.24 215.4L615.12 211.72L618.24 208.92L620.72 208.52L623.04 207.64L624.08 201.4L622.56 195L623.76 191.16L626.4 188.84L628.24 184.68L627.84 179.8L629.52 172.44L633.36 166.68L634.72 169.64L635.92 171.56L639.84 173.16L644.96 172.44L654.56 169.56L661.36 169.72L671.36 171.48L680.64 175.16L685.52 181L685.12 184.84L671.44 220.84L672.64 224.6L676.24 226.92L681.04 229.16L694.08 238.36L702.4 240.52L704 242.12L707.44 250.52L708.64 252.28L710.24 253.16L712.48 253.32L714.96 251.72L716.72 251.88L719.68 254.2L723.44 253.64L724.64 254.44L725.44 257.88L728.32 259.24L732 259.32L738.96 257.88L742.08 257.56L743.2 257.88L746.32 260.44L751.52 266.68L754.88 268.28L762 268.84L764.88 270.52L767.76 274.44L763.28 283.8L760.72 287.96L755.6 294.28L753.84 295.8L751.92 296.76L749.44 297L743.92 295.72L741.28 295.96L739.04 298.44L737.84 303.96L737.92 312.04L739.44 319.16L742.64 321.88L743.68 321L745.12 318.36L746.72 318.28L746.96 319.16L749.68 324.28L750.8 331.64L751.84 335.08L753.84 337.72L760.08 342.04L761.52 342.68L763.92 343.32L769.52 348.52L781.04 353.4L786.88 356.92L788.8 361.32L790.64 360.6L791.6 361.24L792.4 362.6L794.72 365.24L798.48 371L799.2 373.32H797.84L796.8 374.6L796.4 378.6L795.52 380.6L793.2 383.08L792.08 387.32L791.44 392.76L790.4 397.88L788.16 401.08L785.76 401.48L783.52 400.84L781.2 400.6L778.72 402.2L777.36 404.76L776.64 407.24L775.6 408.92L773.04 409L770.88 407.72L767.6 403.16L765.6 401.48L758.56 399.16L756.08 397.64L749.04 391.24L745.6 386.92L743.68 385.08L741.6 384.28L732.64 384.36L730 385L723.84 388.92L721.44 389.8L718.56 390.04L712.88 389.4L695.2 382.92L686.88 377.88L682 373.64L679.12 369.08L681.76 365.8L684.48 364.84L686.24 363.88L686.08 362.92L683.28 361.8L675.52 360.2L658.4 353.48L654.56 349.8L652.8 347.8L651.04 347.48L647.12 348.68L644.72 348.92L642.88 348.52L637.12 345.56Z" fill="#E2EEFA" stroke="#83ADFF" stroke-width="0.5" stroke-linecap="round" stroke-linejoin="round"/>
<path d="M633.36 166.68L629.52 172.44L627.84 179.8L628.24 184.68L626.4 188.84L623.76 191.16L622.56 195L624.08 201.4L623.04 207.64L620.72 208.52L618.24 208.92L615.12 211.72L612.24 215.4L609.76 223.56L607.52 227.16L605.68 236.36L604.08 240.12L605.44 246.28L605.84 250.84L607.92 255.88L606.08 260.28L607.2 265.24L609.92 266.2L612.72 266.44L618.56 267.96L622.88 273.16L613.28 274.52L606.8 270.28L603.2 272.44L600.08 275.96L603.76 278.2L605.36 282.92L599.44 283.24L593.44 281.8L590.88 282.84L588.88 285.8L587.44 290.28L584.64 293.72L577.36 289.88L574.32 289.64L572.48 292.92L569.12 295.08L565.68 295L563.28 300.44L560.96 301.4L559.52 303.96L553.28 307.16L547.68 302.12L542.08 298.12L535.52 297.24V293.08L537.84 290.36L537.44 284.2L540.72 281L545.12 280.84L546.72 276.28L543.52 271.24L539.6 266.6L538.64 260.84L537.2 255.88L533.04 253.56L524.56 251.64L520.48 251.48L517.04 254.12L513.52 257.32L512.96 253.24L509.68 251.4L509.2 248.76L510.24 245.56L510.48 237.32L512.32 229.48L515.28 227.16L517.12 223.08L519.6 221.16L521.68 218.36L520.72 213.32L518.72 209.08L519.12 203.96L518.88 199.16L517.2 196.92L515.6 195.32L515.12 192.84L514.8 190.28L514 188.6L512.64 187.8L514.48 182.04L518.32 177.24L516.48 174.6L514.4 172.76L510.4 165.64L504.8 164.12L502.32 160.76L500.64 155.96L502 155.48L505.92 151.48L508.08 146.92L510.88 143.64L521.44 143.4L526.24 141.8L535.52 136.84L538.96 135.88L544.96 135.4L550 136.04L554.96 137.64L559.36 140.2L561.2 141.72L564.72 145.48L566.16 147.64L569.04 157.08L570.56 158.68L571.6 157.48L573.52 148.6L576.96 141.08L577.68 138.52L580.8 134.36L585.92 135.4L598.96 144.76L601.04 145.8L603.2 146.28L605.44 145.88L609.84 143.96L612.16 143.64L616 145.08L619.44 148.12L631.12 162.44L633.36 166.68Z" fill="#E2EEFA" stroke="#83ADFF" stroke-width="0.5" stroke-linecap="round" stroke-linejoin="round"/>
<g filter="url(#filter0_d)">
<path d="M467.6 160.04L466.88 168.28L460.56 172.84L457.92 177.56L455.68 178.6L439.12 179.96L429.44 187.8L419.2 184.04L407.12 185L394.48 183.64L383.2 189.56L378.96 193.8L374 195.88L365.44 196.68L359.76 193.48L357.2 193L354.24 190.6L352.72 185.56L346.72 179.88L340.16 175.64L337.2 175.8L334.56 178.44L331.44 178.2L328.4 176.92L315.68 181.24L315.6 177.8L314.64 174.68V170.6L313.6 166.92L304.56 148.76L307.68 142.04L302.32 136.44L288.96 128.84L282.48 123.16L285.36 117.56L289.12 115.4L293.6 115.08L295.04 114.76L296.32 113.72L297.52 110.76L299.04 108.04L302 108.12L304.96 109.48L321.84 113.64L328.8 113.88L332 112.44L333.44 111.24L335.04 110.44L347.92 116.28L356.56 115.16L364 118.04L367.28 118.6L369.44 115.24L369.76 110.12L372.4 107.64L376.48 101.88L380.32 100.36L382.64 101.56L416.56 111.24L421.04 112.36L429.28 116.44L431.28 118.2L436.16 124.04L438.4 125.48L449.44 128.2L454.8 130.92L456.08 135.64L453.36 139.56L449.2 142.52L445.84 145.8L445.52 150.6L448.88 154.84L454.24 156.28L460.08 156.68L464.88 157.96L467.6 160.04Z" fill="#0057FF"/>
<path d="M467.6 160.04L466.88 168.28L460.56 172.84L457.92 177.56L455.68 178.6L439.12 179.96L429.44 187.8L419.2 184.04L407.12 185L394.48 183.64L383.2 189.56L378.96 193.8L374 195.88L365.44 196.68L359.76 193.48L357.2 193L354.24 190.6L352.72 185.56L346.72 179.88L340.16 175.64L337.2 175.8L334.56 178.44L331.44 178.2L328.4 176.92L315.68 181.24L315.6 177.8L314.64 174.68V170.6L313.6 166.92L304.56 148.76L307.68 142.04L302.32 136.44L288.96 128.84L282.48 123.16L285.36 117.56L289.12 115.4L293.6 115.08L295.04 114.76L296.32 113.72L297.52 110.76L299.04 108.04L302 108.12L304.96 109.48L321.84 113.64L328.8 113.88L332 112.44L333.44 111.24L335.04 110.44L347.92 116.28L356.56 115.16L364 118.04L367.28 118.6L369.44 115.24L369.76 110.12L372.4 107.64L376.48 101.88L380.32 100.36L382.64 101.56L416.56 111.24L421.04 112.36L429.28 116.44L431.28 118.2L436.16 124.04L438.4 125.48L449.44 128.2L454.8 130.92L456.08 135.64L453.36 139.56L449.2 142.52L445.84 145.8L445.52 150.6L448.88 154.84L454.24 156.28L460.08 156.68L464.88 157.96L467.6 160.04Z" stroke="#83ADFF" stroke-width="0.5" stroke-linecap="round" stroke-linejoin="round"/>
</g>
<path d="M584.64 293.72L581.2 297.08L580.88 299.8L583.2 301.96L584 304.76L584.56 307.48L586.4 309.16L588.48 310.2L591.28 310.92L594 310.2L595.52 307.96L597.44 306.44L598.64 310.36L595.2 315.32L590.72 316.84L586.16 316.52L582.72 314.84L579.84 314.12L576.88 313.88L567.2 308.84L563.68 309L562 306.84L561.68 304.6L559.52 303.96L560.96 301.4L563.28 300.44L565.68 295L569.12 295.08L572.48 292.92L574.32 289.64L577.36 289.88L584.64 293.72Z" fill="#E2EEFA" stroke="#83ADFF" stroke-width="0.5" stroke-linecap="round" stroke-linejoin="round"/>
<path d="M605.36 282.92L608.48 286.44L611.12 290.76L615.04 293.64L619.6 294.2L621.68 298.44L622.56 303.56L624.88 312.12L620.8 321.56L621.44 325.88L622.32 329L624.4 330.44L628.24 330.68L632 331.72L634.16 334.92L635.04 338.92L636.8 342.84L637.12 345.56L634.96 344.44L631.04 344.2L627.2 345.56L597.76 370.04L596.32 370.92L593.6 373.4L592.16 374.44L587.68 374.52L576.16 372.76L573.84 375.08L574.88 377.32L579.28 379.48L580.56 381.24L579.36 382.92L576.24 383.32L558.8 383L553.84 381L551.44 380.68L548.88 381.88L547.36 383.88L545.92 386.44L544.16 387.96L541.68 387.24L540 383.24L538.72 383.32L535.52 386.6L532.64 387.4L530 387.24L527.36 386.28L521.04 382.44L519.52 382.28L518.16 382.68L515.2 385.32L512.4 385.8L510.24 384.92L504.48 380.92L501.2 379.56L499.92 379.64L498.56 380.6L498.16 383.16L497.52 384.68L495.68 386.52L493.36 387.8L490.8 388.28L485.76 386.84L483.44 387.08L478.64 389.24L475.92 389.96L474.64 381.72L473.36 379.16L471.84 376.92L470.96 369.88L472.72 362.92L472.24 359.48L470.96 356.44L468.48 354.84L467.6 351.24L467.52 347.72L467.2 344.28L466.72 342.12L465.6 341.16L463.44 336.6L460.32 333.24L454.64 332.92L448.96 334.36L443.68 334.6L439.52 333.8L440.32 331.24L442 329.88L443.28 325.96L444 310.04L446.72 305.08L452 305.96L459.12 305.64L464.96 299.4L492.48 302.12L496.16 300.92L499.92 300.28L505.52 301.64L511.28 300.6L518.48 297.16L520.64 298.2L522.56 300.52L525.28 301.64L533.6 301.4L535.52 297.24L542.08 298.12L547.68 302.12L553.28 307.16L559.52 303.96L561.68 304.6L562 306.84L563.68 309L567.2 308.84L576.88 313.88L579.84 314.12L582.72 314.84L586.16 316.52L590.72 316.84L595.2 315.32L598.64 310.36L597.44 306.44L595.52 307.96L594 310.2L591.28 310.92L588.48 310.2L586.4 309.16L584.56 307.48L584 304.76L583.2 301.96L580.88 299.8L581.2 297.08L584.64 293.72L587.44 290.28L588.88 285.8L590.88 282.84L593.44 281.8L599.44 283.24L605.36 282.92Z" fill="#E2EEFA" stroke="#83ADFF" stroke-width="0.5" stroke-linecap="round" stroke-linejoin="round"/>
<path d="M464.96 299.4L459.12 305.64L452 305.96L446.72 305.08L444 310.04L443.28 325.96L442 329.88L440.32 331.24L439.52 333.8L443.68 334.6L448.96 334.36L454.64 332.92L460.32 333.24L463.44 336.6L465.6 341.16L466.72 342.12L467.2 344.28L467.52 347.72L467.6 351.24L468.48 354.84L470.96 356.44L472.24 359.48L472.72 362.92L470.96 369.88L471.84 376.92L473.36 379.16L474.64 381.72L475.92 389.96L473.28 390.6L462.24 390.84L457.12 393L451.6 397.88L449.28 398.84L446.32 399.08L426.96 396.36L421.84 396.52L415.44 399.16L414.24 399.48L411.92 399.16L413.28 395L411.6 391.24L408.32 388.28L405.12 386.36L401.36 385.32L397.92 385.56L386.96 388.68L385.2 387.4L382.4 380.36L380 377.64L377.6 377.32L374.96 377.64L371.76 376.6L378.24 373.32L379.92 371.8L381.52 369.48L381.36 368.68L377.92 368.2L374.24 366.44L368.48 361.4L359.76 355.4L358 353.48L354.48 346.76L352.48 345.24L350.72 343.24L347.2 342.04L346.24 341.48L345.28 339.72L344.64 337.72L343.76 336.68L342.16 337.72L339.28 341.08L337.04 340.36L334.72 337.88L331.68 336.04L332.72 334.44L335.04 332.44L336 331.32L337.12 326.68L338.08 325.24L335.84 324.12L319.12 322.68L313.12 323.16L310.32 324.12L309.12 320.76L305.6 315.16L302.8 311.88L299.68 309L298.56 307L297.76 304.68L298 301.72L299.36 299.56L299.52 294.04L297.84 289.08L303.68 288.44L306.32 289.4L309.04 289.88L311.04 288.28L312.08 285.4L314.72 283.64L317.76 283.56L325.12 287.96L337.68 284.76L347.92 286.92L353.28 287L358.4 284.84L370.64 283.8L372.64 284.52L374.64 284.84L410.24 270.2L413.52 270.04L421.28 271.88L425.44 273.88L426.56 276.12L427.2 278.68L428.8 280.04L430 281.88L434.08 285.4L437.76 286.04L439.52 290.28L443.36 291.72L447.44 294.12L451.92 293.4L459.92 293.32L464.96 299.4Z" fill="#E2EEFA" stroke="#83ADFF" stroke-width="0.5" stroke-linecap="round" stroke-linejoin="round"/>
<path d="M535.52 297.24L533.6 301.4L525.28 301.64L522.56 300.52L520.64 298.2L518.48 297.16L511.28 300.6L505.52 301.64L499.92 300.28L496.16 300.92L492.48 302.12L464.96 299.4L459.92 293.32L451.92 293.4L447.44 294.12L443.36 291.72L439.52 290.28L437.76 286.04L434.08 285.4L430 281.88L428.8 280.04L427.2 278.68L426.56 276.12L425.44 273.88L421.28 271.88L413.52 270.04L410.24 270.2L411.04 264.04L415.36 260.2L417.2 254.44L417.68 247.64L420.96 244.36L424.8 241.4L427.04 237.24L428.64 232.6L431.84 229.56L432.56 225.32L431.84 220.2L432.8 215.48L440.8 209.72L449.92 207.24L450.08 201.96L451.44 196.76L448.8 193.48L444.96 194.04L441.68 195.88L438.24 196.68L433.6 195.96L429.44 193.4L439.12 185.56L455.68 184.2L457.92 183.16L460.56 178.44L466.88 173.88L467.6 165.64L469.04 166.84L471.36 167.96L473.52 167.56L475.28 166.04L478.24 161.96L479.84 160.2L485.04 157.72L496.48 157.16L500.64 155.96L502.32 160.76L504.8 164.12L510.4 165.64L514.4 172.76L516.48 174.6L518.32 177.24L514.48 182.04L512.64 187.8L514 188.6L514.8 190.28L515.12 192.84L515.6 195.32L517.2 196.92L518.88 199.16L519.12 203.96L518.72 209.08L520.72 213.32L521.68 218.36L519.6 221.16L517.12 223.08L515.28 227.16L512.32 229.48L510.48 237.32L510.24 245.56L509.2 248.76L509.68 251.4L512.96 253.24L513.52 257.32L517.04 254.12L520.48 251.48L524.56 251.64L533.04 253.56L537.2 255.88L538.64 260.84L539.6 266.6L543.52 271.24L546.72 276.28L545.12 280.84L540.72 281L537.44 284.2L537.84 290.36L535.52 293.08V297.24Z" fill="#E2EEFA" stroke="#83ADFF" stroke-width="0.5" stroke-linecap="round" stroke-linejoin="round"/>
<path d="M341.249 144.2C341.015 143.679 340.842 143.181 340.732 142.704C340.622 142.22 340.567 141.696 340.567 141.131V140.702C340.567 139.353 340.817 138.311 341.315 137.578C341.821 136.837 342.654 136.353 343.812 136.126C344.194 136.053 344.593 135.983 345.011 135.917C345.437 135.851 345.866 135.789 346.298 135.73L346.474 136.885C346.181 136.929 345.877 136.973 345.561 137.017C345.253 137.061 344.96 137.105 344.681 137.149C344.403 137.186 344.164 137.226 343.966 137.27C343.658 137.329 343.358 137.413 343.064 137.523C342.771 137.626 342.507 137.783 342.272 137.996C342.038 138.201 341.858 138.48 341.733 138.832H341.777C341.968 138.583 342.166 138.418 342.371 138.337C342.584 138.249 342.8 138.205 343.02 138.205C343.402 138.205 343.724 138.308 343.988 138.513C344.252 138.718 344.447 138.993 344.571 139.338H344.637C344.762 138.986 344.964 138.711 345.242 138.513C345.521 138.308 345.873 138.205 346.298 138.205C346.812 138.205 347.244 138.333 347.596 138.59C347.948 138.839 348.212 139.188 348.388 139.635C348.572 140.082 348.663 140.596 348.663 141.175C348.663 141.754 348.605 142.275 348.487 142.737C348.377 143.192 348.205 143.679 347.97 144.2H346.573C346.801 143.701 346.969 143.214 347.079 142.737C347.189 142.26 347.244 141.743 347.244 141.186C347.244 140.621 347.156 140.174 346.98 139.844C346.804 139.507 346.533 139.338 346.166 139.338C345.873 139.338 345.649 139.459 345.495 139.701C345.341 139.943 345.264 140.28 345.264 140.713V142.242H343.944V140.713C343.944 140.302 343.871 139.972 343.724 139.723C343.578 139.466 343.354 139.338 343.053 139.338C342.709 139.338 342.437 139.492 342.239 139.8C342.049 140.108 341.953 140.574 341.953 141.197C341.953 141.754 342.005 142.271 342.107 142.748C342.217 143.217 342.39 143.701 342.624 144.2H341.249ZM352.304 144.31C351.805 144.31 351.358 144.222 350.962 144.046C350.566 143.87 350.254 143.613 350.027 143.276C349.8 142.939 349.686 142.521 349.686 142.022C349.686 141.831 349.701 141.663 349.73 141.516C349.759 141.369 349.8 141.234 349.851 141.109H351.171C351.142 141.234 351.116 141.366 351.094 141.505C351.079 141.644 351.072 141.791 351.072 141.945C351.072 142.304 351.182 142.601 351.402 142.836C351.622 143.071 351.923 143.188 352.304 143.188C352.685 143.188 352.982 143.074 353.195 142.847C353.408 142.612 353.514 142.312 353.514 141.945C353.514 141.593 353.426 141.307 353.25 141.087C353.081 140.86 352.887 140.64 352.667 140.427C352.484 140.258 352.304 140.079 352.128 139.888C351.959 139.69 351.816 139.459 351.699 139.195C351.582 138.931 351.523 138.612 351.523 138.238H352.909C352.909 138.546 352.997 138.817 353.173 139.052C353.356 139.279 353.565 139.507 353.8 139.734C353.983 139.91 354.159 140.101 354.328 140.306C354.504 140.504 354.647 140.735 354.757 140.999C354.874 141.256 354.933 141.564 354.933 141.923C354.933 142.4 354.823 142.818 354.603 143.177C354.383 143.536 354.075 143.815 353.679 144.013C353.283 144.211 352.825 144.31 352.304 144.31ZM358.854 146.95C358.304 146.95 357.824 146.84 357.413 146.62C357.01 146.4 356.698 146.099 356.478 145.718C356.258 145.337 356.148 144.9 356.148 144.409C356.148 144.196 356.166 143.998 356.203 143.815C356.247 143.632 356.302 143.463 356.368 143.309H357.677C357.64 143.441 357.607 143.599 357.578 143.782C357.549 143.965 357.534 144.138 357.534 144.299C357.534 144.563 357.578 144.809 357.666 145.036C357.761 145.271 357.908 145.458 358.106 145.597C358.304 145.744 358.553 145.817 358.854 145.817C359.169 145.817 359.422 145.744 359.613 145.597C359.804 145.45 359.943 145.256 360.031 145.014C360.126 144.779 360.174 144.53 360.174 144.266C360.174 143.958 360.13 143.687 360.042 143.452C359.961 143.21 359.855 142.979 359.723 142.759C359.591 142.532 359.47 142.297 359.36 142.055C359.25 141.813 359.169 141.545 359.118 141.252H359.074C358.744 141.67 358.267 141.879 357.644 141.879C357.373 141.879 357.101 141.813 356.83 141.681C356.559 141.542 356.335 141.336 356.159 141.065C355.983 140.794 355.895 140.46 355.895 140.064C355.895 139.499 356.082 139.056 356.456 138.733C356.83 138.403 357.307 138.238 357.886 138.238H358.865V135.84H360.229V138.238H361.516V139.36H360.229V140.097C360.229 140.552 360.306 140.944 360.46 141.274C360.614 141.597 360.786 141.919 360.977 142.242C361.138 142.513 361.278 142.814 361.395 143.144C361.52 143.467 361.582 143.833 361.582 144.244C361.582 144.779 361.472 145.249 361.252 145.652C361.032 146.063 360.717 146.382 360.306 146.609C359.903 146.836 359.419 146.95 358.854 146.95ZM358.029 140.823C358.308 140.823 358.52 140.739 358.667 140.57C358.814 140.401 358.887 140.196 358.887 139.954V139.338H358.051C357.765 139.338 357.552 139.404 357.413 139.536C357.281 139.668 357.215 139.844 357.215 140.064C357.215 140.299 357.288 140.486 357.435 140.625C357.582 140.757 357.78 140.823 358.029 140.823ZM365.012 144.31C364.513 144.31 364.066 144.222 363.67 144.046C363.274 143.87 362.962 143.613 362.735 143.276C362.508 142.939 362.394 142.521 362.394 142.022C362.394 141.831 362.409 141.663 362.438 141.516C362.467 141.369 362.508 141.234 362.559 141.109H363.879C363.85 141.234 363.824 141.366 363.802 141.505C363.787 141.644 363.78 141.791 363.78 141.945C363.78 142.304 363.89 142.601 364.11 142.836C364.33 143.071 364.631 143.188 365.012 143.188C365.393 143.188 365.69 143.074 365.903 142.847C366.116 142.612 366.222 142.312 366.222 141.945C366.222 141.593 366.134 141.307 365.958 141.087C365.789 140.86 365.595 140.64 365.375 140.427C365.192 140.258 365.012 140.079 364.836 139.888C364.667 139.69 364.524 139.459 364.407 139.195C364.29 138.931 364.231 138.612 364.231 138.238H365.617C365.617 138.546 365.705 138.817 365.881 139.052C366.064 139.279 366.273 139.507 366.508 139.734C366.691 139.91 366.867 140.101 367.036 140.306C367.212 140.504 367.355 140.735 367.465 140.999C367.582 141.256 367.641 141.564 367.641 141.923C367.641 142.4 367.531 142.818 367.311 143.177C367.091 143.536 366.783 143.815 366.387 144.013C365.991 144.211 365.533 144.31 365.012 144.31ZM368.558 141.835V140.669H371.352V141.835H368.558ZM379.286 146.95C379.066 146.583 378.783 146.286 378.439 146.059C378.101 145.832 377.735 145.663 377.339 145.553C376.95 145.45 376.572 145.399 376.206 145.399C375.788 145.399 375.406 145.454 375.062 145.564C374.724 145.674 374.409 145.81 374.116 145.971L373.632 145.058C373.815 144.948 374.031 144.853 374.281 144.772C374.53 144.691 374.783 144.636 375.04 144.607V144.574C374.504 144.413 374.028 144.174 373.61 143.859C373.199 143.544 372.873 143.148 372.631 142.671C372.389 142.194 372.268 141.63 372.268 140.977C372.268 140.42 372.356 139.928 372.532 139.503C372.708 139.07 372.964 138.733 373.302 138.491C373.646 138.249 374.068 138.128 374.567 138.128C375.007 138.128 375.362 138.231 375.634 138.436C375.912 138.641 376.114 138.916 376.239 139.261H376.294C376.418 138.909 376.613 138.634 376.877 138.436C377.141 138.231 377.478 138.128 377.889 138.128C378.292 138.128 378.629 138.231 378.901 138.436C379.172 138.634 379.366 138.909 379.484 139.261H379.539C379.663 138.916 379.865 138.641 380.144 138.436C380.43 138.231 380.785 138.128 381.211 138.128C381.709 138.128 382.127 138.256 382.465 138.513C382.809 138.762 383.07 139.114 383.246 139.569C383.429 140.016 383.521 140.537 383.521 141.131C383.521 141.63 383.466 142.092 383.356 142.517C383.253 142.935 383.088 143.36 382.861 143.793L381.651 143.353C381.819 142.994 381.937 142.638 382.003 142.286C382.069 141.934 382.102 141.553 382.102 141.142C382.102 140.504 382.01 140.031 381.827 139.723C381.643 139.408 381.39 139.25 381.068 139.25C380.782 139.25 380.562 139.371 380.408 139.613C380.261 139.848 380.188 140.185 380.188 140.625V142.275H378.857V140.559C378.857 140.185 378.783 139.873 378.637 139.624C378.49 139.375 378.241 139.25 377.889 139.25C377.566 139.25 377.324 139.367 377.163 139.602C377.009 139.837 376.932 140.156 376.932 140.559V142.275H375.601V140.625C375.601 140.214 375.527 139.884 375.381 139.635C375.241 139.378 375.018 139.25 374.71 139.25C374.394 139.25 374.141 139.393 373.951 139.679C373.767 139.965 373.676 140.405 373.676 140.999C373.676 141.622 373.808 142.147 374.072 142.572C374.336 142.997 374.695 143.342 375.15 143.606C375.604 143.87 376.121 144.068 376.701 144.2C377.236 144.317 377.738 144.471 378.208 144.662C378.684 144.86 379.106 145.102 379.473 145.388C379.839 145.674 380.122 146.019 380.32 146.422L379.286 146.95ZM387.057 146.95C386.514 146.95 386.041 146.84 385.638 146.62C385.234 146.4 384.923 146.088 384.703 145.685C384.483 145.289 384.373 144.827 384.373 144.299C384.373 144.086 384.391 143.888 384.428 143.705C384.472 143.522 384.527 143.353 384.593 143.199H385.902C385.865 143.331 385.832 143.489 385.803 143.672C385.773 143.855 385.759 144.028 385.759 144.189C385.759 144.644 385.861 145.029 386.067 145.344C386.279 145.667 386.609 145.828 387.057 145.828C387.533 145.828 387.867 145.667 388.058 145.344C388.256 145.021 388.355 144.592 388.355 144.057V140.713C388.355 140.244 388.259 139.884 388.069 139.635C387.885 139.378 387.599 139.25 387.211 139.25C386.851 139.25 386.565 139.356 386.353 139.569C386.147 139.774 386.045 140.075 386.045 140.471C386.045 140.618 386.052 140.764 386.067 140.911C386.081 141.05 386.107 141.19 386.144 141.329H384.824C384.78 141.204 384.739 141.069 384.703 140.922C384.673 140.775 384.659 140.607 384.659 140.416C384.659 139.917 384.769 139.499 384.989 139.162C385.216 138.825 385.52 138.568 385.902 138.392C386.29 138.216 386.723 138.128 387.2 138.128C387.977 138.128 388.593 138.355 389.048 138.81C389.51 139.265 389.741 139.892 389.741 140.691V144.09C389.741 144.999 389.506 145.703 389.037 146.202C388.575 146.701 387.915 146.95 387.057 146.95ZM391.081 144.2V137.919C391.081 137.252 391.283 136.72 391.686 136.324C392.09 135.928 392.643 135.73 393.347 135.73C394.022 135.73 394.543 135.866 394.909 136.137C395.283 136.408 395.47 136.738 395.47 137.127C395.47 137.486 395.36 137.78 395.14 138.007C394.928 138.227 394.598 138.418 394.15 138.579C393.71 138.733 393.146 138.887 392.456 139.041V139.327C392.456 139.415 392.449 139.525 392.434 139.657C392.427 139.782 392.412 139.917 392.39 140.064H392.445C392.629 139.785 392.871 139.562 393.171 139.393C393.472 139.217 393.817 139.129 394.205 139.129C394.895 139.129 395.437 139.356 395.833 139.811C396.237 140.258 396.438 140.893 396.438 141.714C396.438 142.198 396.391 142.653 396.295 143.078C396.207 143.496 396.101 143.87 395.976 144.2H394.612C394.73 143.892 394.825 143.544 394.898 143.155C394.979 142.766 395.019 142.345 395.019 141.89C395.019 141.347 394.913 140.94 394.7 140.669C394.495 140.398 394.198 140.262 393.809 140.262C393.391 140.262 393.061 140.416 392.819 140.724C392.585 141.032 392.467 141.483 392.467 142.077V144.2H391.081ZM392.434 138.183C392.97 138.088 393.388 137.963 393.688 137.809C393.996 137.655 394.15 137.461 394.15 137.226C394.15 137.072 394.081 136.944 393.941 136.841C393.802 136.738 393.604 136.687 393.347 136.687C393.076 136.687 392.856 136.768 392.687 136.929C392.519 137.09 392.434 137.318 392.434 137.611V138.183ZM400.405 144.31C399.532 144.31 398.861 144.05 398.392 143.529C397.93 143.008 397.699 142.246 397.699 141.241V135.84H399.085V137.919C399.085 138.088 399.074 138.282 399.052 138.502C399.037 138.722 399.022 138.887 399.008 138.997H399.063C399.239 138.755 399.462 138.55 399.734 138.381C400.012 138.212 400.372 138.128 400.812 138.128C401.516 138.128 402.084 138.388 402.517 138.909C402.949 139.43 403.166 140.203 403.166 141.23C403.166 142.235 402.916 143.001 402.418 143.529C401.919 144.05 401.248 144.31 400.405 144.31ZM400.394 143.188C400.87 143.188 401.215 143.016 401.428 142.671C401.64 142.326 401.747 141.857 401.747 141.263C401.747 140.625 401.633 140.134 401.406 139.789C401.186 139.437 400.867 139.261 400.449 139.261C399.899 139.261 399.521 139.433 399.316 139.778C399.118 140.115 399.019 140.596 399.019 141.219V141.406C399.019 141.956 399.125 142.392 399.338 142.715C399.558 143.03 399.91 143.188 400.394 143.188ZM406.935 146.95C406.356 146.95 405.857 146.84 405.439 146.62C405.021 146.4 404.698 146.088 404.471 145.685C404.251 145.289 404.141 144.827 404.141 144.299C404.141 144.086 404.159 143.888 404.196 143.705C404.24 143.522 404.295 143.353 404.361 143.199H405.67C405.633 143.331 405.6 143.489 405.571 143.672C405.542 143.855 405.527 144.028 405.527 144.189C405.527 144.644 405.637 145.029 405.857 145.344C406.077 145.667 406.436 145.828 406.935 145.828C407.426 145.828 407.775 145.663 407.98 145.333C408.185 145.003 408.288 144.578 408.288 144.057V140.328C408.288 139.602 408.039 139.239 407.54 139.239C407.305 139.239 407.122 139.331 406.99 139.514C406.865 139.69 406.803 139.954 406.803 140.306V141.604H405.483V140.284C405.483 139.624 405.223 139.294 404.702 139.294H403.943V138.183H404.713C405.446 138.183 405.927 138.502 406.154 139.14H406.198C406.323 138.817 406.517 138.568 406.781 138.392C407.052 138.216 407.368 138.128 407.727 138.128C408.343 138.128 408.82 138.315 409.157 138.689C409.502 139.063 409.674 139.554 409.674 140.163V144.09C409.674 144.999 409.436 145.703 408.959 146.202C408.49 146.701 407.815 146.95 406.935 146.95ZM413.69 144.31C412.846 144.31 412.175 144.05 411.677 143.529C411.178 143.008 410.929 142.26 410.929 141.285C410.929 140.324 411.145 139.598 411.578 139.107C412.01 138.608 412.579 138.359 413.283 138.359C413.723 138.359 414.078 138.436 414.35 138.59C414.628 138.744 414.852 138.946 415.021 139.195H415.076C415.061 139.092 415.043 138.968 415.021 138.821C415.006 138.674 414.999 138.528 414.999 138.381V137.919C414.999 137.596 414.903 137.321 414.713 137.094C414.522 136.867 414.218 136.753 413.8 136.753C413.455 136.753 413.18 136.834 412.975 136.995C412.769 137.156 412.667 137.362 412.667 137.611C412.667 137.648 412.667 137.688 412.667 137.732C412.674 137.776 412.681 137.813 412.689 137.842H411.336C411.314 137.769 411.299 137.699 411.292 137.633C411.284 137.567 411.281 137.505 411.281 137.446C411.281 137.094 411.394 136.79 411.622 136.533C411.849 136.276 412.153 136.078 412.535 135.939C412.916 135.8 413.338 135.73 413.8 135.73C414.342 135.73 414.804 135.829 415.186 136.027C415.574 136.225 415.871 136.5 416.077 136.852C416.289 137.204 416.396 137.611 416.396 138.073V141.285C416.396 142.26 416.161 143.008 415.692 143.529C415.222 144.05 414.555 144.31 413.69 144.31ZM413.69 143.188C414.174 143.188 414.526 143.03 414.746 142.715C414.966 142.392 415.076 141.974 415.076 141.461V141.263C415.076 140.706 414.973 140.266 414.768 139.943C414.57 139.613 414.199 139.448 413.657 139.448C413.224 139.448 412.898 139.62 412.678 139.965C412.458 140.302 412.348 140.753 412.348 141.318C412.348 141.883 412.454 142.337 412.667 142.682C412.879 143.019 413.22 143.188 413.69 143.188ZM339.614 162.95C339.071 162.95 338.598 162.84 338.195 162.62C337.791 162.4 337.48 162.088 337.26 161.685C337.04 161.289 336.93 160.827 336.93 160.299C336.93 160.086 336.948 159.888 336.985 159.705C337.029 159.522 337.084 159.353 337.15 159.199H338.459C338.422 159.331 338.389 159.489 338.36 159.672C338.33 159.855 338.316 160.028 338.316 160.189C338.316 160.644 338.418 161.029 338.624 161.344C338.836 161.667 339.166 161.828 339.614 161.828C340.09 161.828 340.424 161.667 340.615 161.344C340.813 161.021 340.912 160.592 340.912 160.057V157.142C340.912 156.555 340.816 156.093 340.626 155.756C340.435 155.419 340.116 155.25 339.669 155.25C339.361 155.25 339.104 155.356 338.899 155.569C338.701 155.774 338.602 156.075 338.602 156.471C338.602 156.618 338.609 156.764 338.624 156.911C338.638 157.05 338.664 157.19 338.701 157.329H337.381C337.337 157.204 337.296 157.065 337.26 156.911C337.23 156.757 337.216 156.577 337.216 156.372C337.216 155.888 337.315 155.481 337.513 155.151C337.711 154.814 337.967 154.561 338.283 154.392C338.598 154.216 338.928 154.128 339.273 154.128C339.676 154.128 340.01 154.212 340.274 154.381C340.538 154.55 340.758 154.755 340.934 154.997H340.989C340.974 154.887 340.956 154.722 340.934 154.502C340.919 154.282 340.912 154.091 340.912 153.93V151.84H342.298V160.09C342.298 160.999 342.063 161.703 341.594 162.202C341.132 162.701 340.472 162.95 339.614 162.95ZM346.287 162.95C345.708 162.95 345.209 162.844 344.791 162.631C344.38 162.418 344.061 162.132 343.834 161.773C343.614 161.414 343.504 161.007 343.504 160.552C343.504 160.347 343.522 160.156 343.559 159.98C343.596 159.804 343.64 159.65 343.691 159.518H345.011C344.974 159.635 344.945 159.775 344.923 159.936C344.901 160.097 344.89 160.251 344.89 160.398C344.89 160.647 344.938 160.878 345.033 161.091C345.128 161.311 345.279 161.487 345.484 161.619C345.689 161.758 345.957 161.828 346.287 161.828C346.764 161.828 347.108 161.678 347.321 161.377C347.541 161.076 347.651 160.706 347.651 160.266C347.651 159.826 347.526 159.47 347.277 159.199C347.035 158.92 346.679 158.781 346.21 158.781H345.781V157.67H346.254C346.694 157.67 347.006 157.542 347.189 157.285C347.372 157.028 347.464 156.731 347.464 156.394C347.464 156.057 347.365 155.782 347.167 155.569C346.976 155.356 346.698 155.25 346.331 155.25C345.964 155.25 345.682 155.345 345.484 155.536C345.293 155.727 345.198 155.998 345.198 156.35C345.198 156.548 345.224 156.746 345.275 156.944H343.933C343.896 156.827 343.867 156.713 343.845 156.603C343.823 156.493 343.812 156.372 343.812 156.24C343.812 155.829 343.918 155.466 344.131 155.151C344.351 154.828 344.652 154.579 345.033 154.403C345.414 154.22 345.851 154.128 346.342 154.128C346.848 154.128 347.288 154.223 347.662 154.414C348.043 154.605 348.337 154.861 348.542 155.184C348.747 155.507 348.85 155.862 348.85 156.251C348.85 156.786 348.707 157.219 348.421 157.549C348.142 157.872 347.772 158.084 347.31 158.187V158.22C347.618 158.271 347.904 158.385 348.168 158.561C348.439 158.73 348.656 158.964 348.817 159.265C348.986 159.566 349.07 159.925 349.07 160.343C349.07 160.864 348.956 161.318 348.729 161.707C348.502 162.103 348.179 162.407 347.761 162.62C347.35 162.84 346.859 162.95 346.287 162.95ZM352.709 162.95C352.166 162.95 351.693 162.84 351.29 162.62C350.886 162.4 350.575 162.088 350.355 161.685C350.135 161.289 350.025 160.827 350.025 160.299C350.025 160.086 350.043 159.888 350.08 159.705C350.124 159.522 350.179 159.353 350.245 159.199H351.554C351.517 159.331 351.484 159.489 351.455 159.672C351.425 159.855 351.411 160.028 351.411 160.189C351.411 160.644 351.513 161.029 351.719 161.344C351.931 161.667 352.261 161.828 352.709 161.828C353.185 161.828 353.519 161.667 353.71 161.344C353.908 161.021 354.007 160.592 354.007 160.057V156.713C354.007 156.244 353.911 155.884 353.721 155.635C353.537 155.378 353.251 155.25 352.863 155.25C352.503 155.25 352.217 155.356 352.005 155.569C351.799 155.774 351.697 156.075 351.697 156.471C351.697 156.618 351.704 156.764 351.719 156.911C351.733 157.05 351.759 157.19 351.796 157.329H350.476C350.432 157.204 350.391 157.069 350.355 156.922C350.325 156.775 350.311 156.607 350.311 156.416C350.311 155.917 350.421 155.499 350.641 155.162C350.868 154.825 351.172 154.568 351.554 154.392C351.942 154.216 352.375 154.128 352.852 154.128C353.629 154.128 354.245 154.355 354.7 154.81C355.162 155.265 355.393 155.892 355.393 156.691V160.09C355.393 160.999 355.158 161.703 354.689 162.202C354.227 162.701 353.567 162.95 352.709 162.95ZM359.415 160.31C358.571 160.31 357.9 160.05 357.402 159.529C356.903 159.008 356.654 158.26 356.654 157.285C356.654 156.324 356.87 155.598 357.303 155.107C357.735 154.608 358.304 154.359 359.008 154.359C359.448 154.359 359.803 154.436 360.075 154.59C360.353 154.744 360.577 154.946 360.746 155.195H360.801C360.786 155.092 360.768 154.968 360.746 154.821C360.731 154.674 360.724 154.528 360.724 154.381V153.919C360.724 153.596 360.628 153.321 360.438 153.094C360.247 152.867 359.943 152.753 359.525 152.753C359.18 152.753 358.905 152.834 358.7 152.995C358.494 153.156 358.392 153.362 358.392 153.611C358.392 153.648 358.392 153.688 358.392 153.732C358.399 153.776 358.406 153.813 358.414 153.842H357.061C357.039 153.769 357.024 153.699 357.017 153.633C357.009 153.567 357.006 153.505 357.006 153.446C357.006 153.094 357.119 152.79 357.347 152.533C357.574 152.276 357.878 152.078 358.26 151.939C358.641 151.8 359.063 151.73 359.525 151.73C360.067 151.73 360.529 151.829 360.911 152.027C361.299 152.225 361.596 152.5 361.802 152.852C362.014 153.204 362.121 153.611 362.121 154.073V157.285C362.121 158.26 361.886 159.008 361.417 159.529C360.947 160.05 360.28 160.31 359.415 160.31ZM359.415 159.188C359.899 159.188 360.251 159.03 360.471 158.715C360.691 158.392 360.801 157.974 360.801 157.461V157.263C360.801 156.706 360.698 156.266 360.493 155.943C360.295 155.613 359.924 155.448 359.382 155.448C358.949 155.448 358.623 155.62 358.403 155.965C358.183 156.302 358.073 156.753 358.073 157.318C358.073 157.883 358.179 158.337 358.392 158.682C358.604 159.019 358.945 159.188 359.415 159.188ZM364.071 160.2C363.837 159.679 363.661 159.184 363.543 158.715C363.433 158.238 363.378 157.71 363.378 157.131C363.378 156.537 363.466 156.016 363.642 155.569C363.826 155.114 364.093 154.762 364.445 154.513C364.797 154.256 365.23 154.128 365.743 154.128C366.198 154.128 366.561 154.231 366.832 154.436C367.111 154.641 367.313 154.916 367.437 155.261H367.492C367.624 154.909 367.83 154.634 368.108 154.436C368.387 154.231 368.743 154.128 369.175 154.128C369.696 154.128 370.132 154.256 370.484 154.513C370.844 154.762 371.111 155.114 371.287 155.569C371.471 156.016 371.562 156.537 371.562 157.131C371.562 157.71 371.504 158.238 371.386 158.715C371.276 159.184 371.1 159.679 370.858 160.2H369.483C369.931 159.239 370.154 158.22 370.154 157.142C370.154 156.555 370.063 156.093 369.879 155.756C369.703 155.419 369.425 155.25 369.043 155.25C368.735 155.25 368.504 155.371 368.35 155.613C368.204 155.848 368.13 156.181 368.13 156.614V158.253H366.81V156.614C366.81 156.196 366.737 155.866 366.59 155.624C366.444 155.375 366.209 155.25 365.886 155.25C365.527 155.25 365.252 155.408 365.061 155.723C364.871 156.031 364.775 156.511 364.775 157.164C364.775 157.721 364.83 158.242 364.94 158.726C365.05 159.21 365.219 159.701 365.446 160.2H364.071ZM378.433 160.31C377.531 160.31 376.845 160.053 376.376 159.54C375.906 159.019 375.672 158.271 375.672 157.296V151.84H377.058V157.406C377.058 157.949 377.168 158.381 377.388 158.704C377.608 159.027 377.952 159.188 378.422 159.188C378.884 159.188 379.225 159.034 379.445 158.726C379.672 158.418 379.786 158.044 379.786 157.604C379.786 157.311 379.745 157.061 379.665 156.856C379.584 156.643 379.481 156.445 379.357 156.262C379.188 156.005 379.03 155.719 378.884 155.404C378.737 155.089 378.664 154.7 378.664 154.238H380.05C380.057 154.575 380.123 154.869 380.248 155.118C380.372 155.36 380.523 155.613 380.699 155.877C380.838 156.09 380.955 156.335 381.051 156.614C381.153 156.885 381.205 157.204 381.205 157.571C381.205 158.128 381.091 158.612 380.864 159.023C380.636 159.434 380.314 159.753 379.896 159.98C379.485 160.2 378.997 160.31 378.433 160.31ZM384.712 162.95C384.132 162.95 383.634 162.844 383.216 162.631C382.805 162.418 382.486 162.132 382.259 161.773C382.039 161.414 381.929 161.007 381.929 160.552C381.929 160.347 381.947 160.156 381.984 159.98C382.02 159.804 382.064 159.65 382.116 159.518H383.436C383.399 159.635 383.37 159.775 383.348 159.936C383.326 160.097 383.315 160.251 383.315 160.398C383.315 160.647 383.362 160.878 383.458 161.091C383.553 161.311 383.703 161.487 383.909 161.619C384.114 161.758 384.382 161.828 384.712 161.828C385.188 161.828 385.533 161.678 385.746 161.377C385.966 161.076 386.076 160.706 386.076 160.266C386.076 159.826 385.951 159.47 385.702 159.199C385.46 158.92 385.104 158.781 384.635 158.781H384.206V157.67H384.679C385.119 157.67 385.43 157.542 385.614 157.285C385.797 157.028 385.889 156.731 385.889 156.394C385.889 156.057 385.79 155.782 385.592 155.569C385.401 155.356 385.122 155.25 384.756 155.25C384.389 155.25 384.107 155.345 383.909 155.536C383.718 155.727 383.623 155.998 383.623 156.35C383.623 156.548 383.648 156.746 383.7 156.944H382.358C382.321 156.827 382.292 156.713 382.27 156.603C382.248 156.493 382.237 156.372 382.237 156.24C382.237 155.829 382.343 155.466 382.556 155.151C382.776 154.828 383.076 154.579 383.458 154.403C383.839 154.22 384.275 154.128 384.767 154.128C385.273 154.128 385.713 154.223 386.087 154.414C386.468 154.605 386.761 154.861 386.967 155.184C387.172 155.507 387.275 155.862 387.275 156.251C387.275 156.786 387.132 157.219 386.846 157.549C386.567 157.872 386.197 158.084 385.735 158.187V158.22C386.043 158.271 386.329 158.385 386.593 158.561C386.864 158.73 387.08 158.964 387.242 159.265C387.41 159.566 387.495 159.925 387.495 160.343C387.495 160.864 387.381 161.318 387.154 161.707C386.926 162.103 386.604 162.407 386.186 162.62C385.775 162.84 385.284 162.95 384.712 162.95ZM390.852 160.31C390.354 160.31 389.906 160.222 389.51 160.046C389.114 159.87 388.803 159.613 388.575 159.276C388.348 158.939 388.234 158.521 388.234 158.022C388.234 157.831 388.249 157.663 388.278 157.516C388.308 157.369 388.348 157.234 388.399 157.109H389.719C389.69 157.234 389.664 157.366 389.642 157.505C389.628 157.644 389.62 157.791 389.62 157.945C389.62 158.304 389.73 158.601 389.95 158.836C390.17 159.071 390.471 159.188 390.852 159.188C391.234 159.188 391.531 159.074 391.743 158.847C391.956 158.612 392.062 158.312 392.062 157.945C392.062 157.593 391.974 157.307 391.798 157.087C391.63 156.86 391.435 156.64 391.215 156.427C391.032 156.258 390.852 156.079 390.676 155.888C390.508 155.69 390.365 155.459 390.247 155.195C390.13 154.931 390.071 154.612 390.071 154.238H391.457C391.457 154.546 391.545 154.817 391.721 155.052C391.905 155.279 392.114 155.507 392.348 155.734C392.532 155.91 392.708 156.101 392.876 156.306C393.052 156.504 393.195 156.735 393.305 156.999C393.423 157.256 393.481 157.564 393.481 157.923C393.481 158.4 393.371 158.818 393.151 159.177C392.931 159.536 392.623 159.815 392.227 160.013C391.831 160.211 391.373 160.31 390.852 160.31ZM397.445 160.31C396.572 160.31 395.905 160.05 395.443 159.529C394.981 159.008 394.75 158.246 394.75 157.241V153.974C394.75 153.461 394.845 153.05 395.036 152.742C395.234 152.427 395.491 152.199 395.806 152.06C396.129 151.913 396.484 151.84 396.873 151.84H399.612V152.94H397.038C396.759 152.94 396.539 153.01 396.378 153.149C396.217 153.288 396.136 153.519 396.136 153.842V154.128C396.136 154.245 396.129 154.396 396.114 154.579C396.099 154.762 396.085 154.913 396.07 155.03H396.114C396.29 154.781 396.514 154.579 396.785 154.425C397.064 154.271 397.423 154.194 397.863 154.194C398.567 154.194 399.135 154.451 399.568 154.964C400.001 155.47 400.217 156.225 400.217 157.23C400.217 158.235 399.964 159.001 399.458 159.529C398.959 160.05 398.288 160.31 397.445 160.31ZM397.445 159.188C397.922 159.188 398.266 159.016 398.479 158.671C398.692 158.326 398.798 157.857 398.798 157.263C398.798 156.64 398.684 156.156 398.457 155.811C398.237 155.466 397.914 155.294 397.489 155.294C396.946 155.294 396.572 155.459 396.367 155.789C396.169 156.119 396.07 156.566 396.07 157.131V157.406C396.07 157.956 396.18 158.392 396.4 158.715C396.62 159.03 396.968 159.188 397.445 159.188ZM403.755 162.95C403.213 162.95 402.74 162.84 402.336 162.62C401.933 162.4 401.621 162.088 401.401 161.685C401.181 161.289 401.071 160.827 401.071 160.299C401.071 160.086 401.09 159.888 401.126 159.705C401.17 159.522 401.225 159.353 401.291 159.199H402.6C402.564 159.331 402.531 159.489 402.501 159.672C402.472 159.855 402.457 160.028 402.457 160.189C402.457 160.644 402.56 161.029 402.765 161.344C402.978 161.667 403.308 161.828 403.755 161.828C404.232 161.828 404.566 161.667 404.756 161.344C404.954 161.021 405.053 160.592 405.053 160.057V156.713C405.053 156.244 404.958 155.884 404.767 155.635C404.584 155.378 404.298 155.25 403.909 155.25C403.55 155.25 403.264 155.356 403.051 155.569C402.846 155.774 402.743 156.075 402.743 156.471C402.743 156.618 402.751 156.764 402.765 156.911C402.78 157.05 402.806 157.19 402.842 157.329H401.522C401.478 157.204 401.438 157.069 401.401 156.922C401.372 156.775 401.357 156.607 401.357 156.416C401.357 155.917 401.467 155.499 401.687 155.162C401.915 154.825 402.219 154.568 402.6 154.392C402.989 154.216 403.422 154.128 403.898 154.128C404.676 154.128 405.292 154.355 405.746 154.81C406.208 155.265 406.439 155.892 406.439 156.691V160.09C406.439 160.999 406.205 161.703 405.735 162.202C405.273 162.701 404.613 162.95 403.755 162.95ZM410.341 160.31C409.835 160.31 409.384 160.189 408.988 159.947C408.592 159.705 408.276 159.353 408.042 158.891C407.814 158.429 407.701 157.868 407.701 157.208C407.701 156.218 407.939 155.459 408.416 154.931C408.9 154.396 409.538 154.128 410.33 154.128C410.762 154.128 411.158 154.231 411.518 154.436C411.884 154.634 412.145 154.927 412.299 155.316H412.354C412.5 154.927 412.728 154.634 413.036 154.436C413.344 154.231 413.747 154.128 414.246 154.128C414.73 154.128 415.14 154.256 415.478 154.513C415.815 154.762 416.072 155.111 416.248 155.558C416.431 155.998 416.523 156.5 416.523 157.065C416.523 157.681 416.464 158.235 416.347 158.726C416.229 159.21 416.053 159.701 415.819 160.2H414.455C414.902 159.239 415.126 158.22 415.126 157.142C415.126 156.555 415.038 156.086 414.862 155.734C414.686 155.382 414.422 155.206 414.07 155.206C413.732 155.206 413.472 155.334 413.289 155.591C413.113 155.848 413.025 156.236 413.025 156.757V157.23C413.025 158.213 412.783 158.972 412.299 159.507C411.822 160.042 411.169 160.31 410.341 160.31ZM410.363 159.188C410.795 159.188 411.111 159.012 411.309 158.66C411.507 158.301 411.606 157.817 411.606 157.208C411.606 156.592 411.507 156.112 411.309 155.767C411.111 155.422 410.792 155.25 410.352 155.25C409.919 155.25 409.604 155.422 409.406 155.767C409.215 156.112 409.12 156.592 409.12 157.208C409.12 157.817 409.215 158.301 409.406 158.66C409.604 159.012 409.923 159.188 410.363 159.188ZM418.243 160.2C418.03 159.701 417.869 159.217 417.759 158.748C417.656 158.279 417.605 157.754 417.605 157.175C417.605 156.258 417.829 155.521 418.276 154.964C418.731 154.407 419.405 154.128 420.3 154.128C421.195 154.128 421.869 154.407 422.324 154.964C422.786 155.521 423.017 156.258 423.017 157.175C423.017 157.754 422.962 158.279 422.852 158.748C422.742 159.217 422.581 159.701 422.368 160.2H421.015C421.411 159.239 421.609 158.235 421.609 157.186C421.609 156.541 421.492 156.057 421.257 155.734C421.03 155.411 420.711 155.25 420.3 155.25C419.889 155.25 419.57 155.411 419.343 155.734C419.116 156.049 419.002 156.537 419.002 157.197C419.002 157.732 419.05 158.242 419.145 158.726C419.248 159.21 419.402 159.701 419.607 160.2H418.243Z" fill="white"/>
<defs>
<filter id="filter0_d" x="267.23" y="89.1099" width="215.619" height="126.82" filterUnits="userSpaceOnUse" color-interpolation-filters="sRGB">
<feFlood flood-opacity="0" result="BackgroundImageFix"/>
<feColorMatrix in="SourceAlpha" type="matrix" values="0 0 0 0 0 0 0 0 0 0 0 0 0 0 0 0 0 0 127 0"/>
<feOffset dy="4"/>
<feGaussianBlur stdDeviation="7.5"/>
<feColorMatrix type="matrix" values="0 0 0 0 0 0 0 0 0 0.341176 0 0 0 0 1 0 0 0 0.15 0"/>
<feBlend mode="normal" in2="BackgroundImageFix" result="effect1_dropShadow"/>
<feBlend mode="normal" in="SourceGraphic" in2="effect1_dropShadow" result="shape"/>
</filter>
</defs>
</svg>
